<svg id="Layer_1" data-name="Layer 1" xmlns="http://www.w3.org/2000/svg" viewBox="0 0 589.4 55.52"><title>line</title><path d="M38.86,264a364.32,364.32,0,0,0,32.67,52.53,1.53,1.53,0,0,0,2.35.3c7.67-6.52,9.05-16.81,14.59-24.76,10.68-15.35,26.56-.29,34,10a1.53,1.53,0,0,0,2.36.31c4.4-4.82,5.13-10.84,7.14-16.8,2.61-7.75,8.58-12.08,16.76-12.28,16.66-.39,27.63,14.06,41.47,20.89,28,13.82,60.15-4.43,88.44,7.73a1.54,1.54,0,0,0,2.21-.9,44.49,44.49,0,0,0-1.39-33.67l-.9,2.2A144.55,144.55,0,0,1,380.32,294,136,136,0,0,1,394.7,305.5c1.09,1,2.59,3.17,4.08,3.63,2,.61,5.87-1,7.92-1.43a153.41,153.41,0,0,0,36.1-13.15c12.17-6.24,23.82-13.86,38.1-12.85,24.9,1.74,44.86,22.51,70.57,20.56a35,35,0,0,0,17.16-6.1c6.23-4.18,11.73-7.76,19.54-7.37,14.45.73,27.22,11.56,37.32,20.92,1.42,1.31,3.54-.81,2.12-2.13-8.64-8-18.24-15.86-29.53-19.77s-20.63-1.41-30.25,5.25c-25.15,17.43-52-6-76.49-12.55-12-3.2-23.26-1.87-34.51,3.34-13,6-24.91,13.27-38.67,17.63-2.88.92-5.8,1.74-8.73,2.48s-7.56,2.73-10.32,1.57c-1.94-.82-4.12-3.83-5.81-5.27q-3.72-3.19-7.65-6.11a144.88,144.88,0,0,0-30.24-17.26,147.13,147.13,0,0,0-77.61-10.27c-1.06.15-1.24,1.44-.9,2.21A41.54,41.54,0,0,1,278,300.19l2.21-.9c-14.88-6.4-30.87-4.8-46.59-3.51-17.41,1.43-34,1.6-49.09-8.5-11.88-8-23.29-18.8-38.74-16.78-5.9.77-11.26,3.67-14.36,8.87-3.9,6.57-3.37,15-8.67,20.84l2.36.31c-7.07-9.7-20-23.81-33.2-15.91C81,291.14,81.19,306.68,71.76,314.7l2.36.3a364.22,364.22,0,0,1-32.67-52.52c-.88-1.72-3.47-.2-2.59,1.51Z" transform="translate(-38.68 -261.72)"/></svg>